<?xml version="1.0" encoding="UTF-8"?>
<svg id="Layer_1" data-name="Layer 1" xmlns="http://www.w3.org/2000/svg" viewBox="0 0 100 100">
  <defs>
    <style>
      .cls-1 {
        fill: #9a0017;
      }
    </style>
  </defs>
  <path class="cls-1" d="M94.81,28.37c.9,.06-1.54,1.93-4.74,2.45s-4.34,.02-8.46,.92c-8.47,1.84-17.34,8.66-19.35,9.88,6.16-.79,15.87-2.02,16.2-2,1.19,.07-1.57,1.81-4.1,2.41-1.21,.29-9.12,1.45-15.47,1.97-4.04,2.85-25.87,17.29-31.25,19.74-4.12,1.88-14.2,5.94-21.76,7.75-5.78,1.38,18.39-7.59,27.85-13.77,8.09-5.28,16.88-11.31,19.72-13.27-3.12,.27-7.31,1.41-9.59,1.41-1.42,0-2.18-.36-1.88-.67,9.33-1.5,11.66-2.36,14.7-2.81,0,0,13.84-7.8,16.85-9.1,3.41-1.47,7.36-3.01,11.31-3.56,3.88-.54,9.1-1.4,9.97-1.34Z"/>
</svg>